ik_tiny_file
version=1
nRows=11
nColumns=40
inDegrees=yes
endheader
time	pelvis_tilt	pelvis_list	pelvis_rotation	pelvis_tx	pelvis_ty	pelvis_tz	hip_flexion_r	hip_adduction_r	hip_rotation_r	knee_angle_r	knee_angle_r_beta	ankle_angle_r	subtalar_angle_r	mtp_angle_r	hip_flexion_l	hip_adduction_l	hip_rotation_l	knee_angle_l	knee_angle_l_beta	ankle_angle_l	subtalar_angle_l	mtp_angle_l	lumbar_extension	lumbar_bending	lumbar_rotation	arm_flex_r	arm_add_r	arm_rot_r	elbow_flex_r	pro_sup_r	wrist_flex_r	wrist_dev_r	arm_flex_l	arm_add_l	arm_rot_l	elbow_flex_l	pro_sup_l	wrist_flex_l	wrist_dev_l
      0.00000000	     33.96443306	     -1.77880124	     15.40593787	      0.00000000	      0.94000000	      0.00000000	     10.57200048	     -4.62136392	      0.00000000	     19.45424161	      0.33954057	     -1.27848773	      0.00000000	      0.00000000	     10.57200048	     -4.62136392	      0.00000000	     19.45424161	      0.33954057	     -1.27848773	      0.00000000	      0.00000000	    -40.75984476	      6.23534670	     -3.39033657	    -24.58948327	     14.32267672	    -14.13722912	     39.18500213	     19.96742298	      0.00000000	      3.01402097	      7.25899355	     -4.74965825	      7.65610988	      0.45112877	     19.96742298	      0.00000000	      3.01402097
      0.02000000	     34.02012361	     -1.74900252	     15.37226438	      0.00000000	      0.94000000	      0.00000000	     10.58325465	     -4.62632008	      0.00000000	     19.46928776	      0.33980317	     -1.27982617	      0.00000000	      0.00000000	     10.58325465	     -4.62632008	      0.00000000	     19.46928776	      0.33980317	     -1.27982617	      0.00000000	      0.00000000	    -40.71601300	      6.32720990	     -3.37873774	    -24.90126233	     14.28119622	    -14.14355970	     39.12844030	     19.99329291	      0.00000000	      3.01722384	      6.96519135	     -4.99331394	      7.63134105	      0.35040337	     19.99329291	      0.00000000	      3.01722384
      0.04000000	     33.99975808	     -1.71491723	     15.35010467	      0.00000000	      0.94000000	      0.00000000	     10.60155522	     -4.63437926	      0.00000000	     19.49373594	      0.34022988	     -1.28200280	      0.00000000	      0.00000000	     10.60155522	     -4.63437926	      0.00000000	     19.49373594	      0.34022988	     -1.28200280	      0.00000000	      0.00000000	    -40.52511256	      6.38050143	     -3.41614568	    -25.34015153	     14.21186640	    -14.12590995	     39.16534105	     20.03531978	      0.00000000	      3.02242945	      6.55177961	     -5.24254442	      7.56170781	      0.28574686	     20.03531978	      0.00000000	      3.02242945
      0.06000000	     33.98501775	     -1.67688406	     15.32932042	      0.00000000	      0.94000000	      0.00000000	     10.62259139	     -4.64363867	      0.00000000	     19.52181312	      0.34071991	     -1.28450526	      0.00000000	      0.00000000	     10.62259139	     -4.64363867	      0.00000000	     19.52181312	      0.34071991	     -1.28450526	      0.00000000	      0.00000000	    -40.37256207	      6.43802890	     -3.45206542	    -25.71294750	     14.14712627	    -14.12654294	     39.17149511	     20.08353123	      0.00000000	      3.02840453	      6.16165512	     -5.49243142	      7.50376133	      0.23876260	     20.08353123	      0.00000000	      3.02840453
      0.08000000	     34.02532049	     -1.64625145	     15.30484100	      0.00000000	      0.94000000	      0.00000000	     10.64618894	     -4.65401889	      0.00000000	     19.55327535	      0.34126903	     -1.28731306	      0.00000000	      0.00000000	     10.64618894	     -4.65401889	      0.00000000	     19.55327535	      0.34126903	     -1.28731306	      0.00000000	      0.00000000	    -40.25637160	      6.49650041	     -3.47243881	    -26.12939600	     14.09413488	    -14.12405744	     39.17298673	     20.13747775	      0.00000000	      3.03509480	      5.79757757	     -5.74352796	      7.44644993	      0.20367584	     20.13747775	      0.00000000	      3.03509480
      0.10000000	     34.04188000	     -1.61935937	     15.27811710	      0.00000000	      0.94000000	      0.00000000	     10.66743354	     -4.66335462	      0.00000000	     19.58157351	      0.34176293	     -1.28984163	      0.00000000	      0.00000000	     10.66743354	     -4.66335462	      0.00000000	     19.58157351	      0.34176293	     -1.28984163	      0.00000000	      0.00000000	    -40.15299671	      6.56806095	     -3.48309337	    -26.47869829	     14.05954643	    -14.12690719	     39.20398700	     20.18589840	      0.00000000	      3.04110339	      5.43301818	     -5.97918459	      7.40299163	      0.17830452	     20.18589840	      0.00000000	      3.04110339
      0.12000000	     34.04112975	     -1.59089412	     15.25977666	      0.00000000	      0.94000000	      0.00000000	     10.69430407	     -4.67515389	      0.00000000	     19.61732732	      0.34238695	     -1.29304061	      0.00000000	      0.00000000	     10.69430407	     -4.67515389	      0.00000000	     19.61732732	      0.34238695	     -1.29304061	      0.00000000	      0.00000000	    -40.01796677	      6.63105307	     -3.51448060	    -26.82855312	     13.99951651	    -14.11713367	     39.20447834	     20.24697927	      0.00000000	      3.04868784	      5.08098188	     -6.21868716	      7.35313704	      0.15828749	     20.24697927	      0.00000000	      3.04868784
      0.14000000	     34.07339693	     -1.57091597	     15.23914006	      0.00000000	      0.94000000	      0.00000000	     10.70835552	     -4.68131432	      0.00000000	     19.63601092	      0.34271304	     -1.29471409	      0.00000000	      0.00000000	     10.70835552	     -4.68131432	      0.00000000	     19.63601092	      0.34271304	     -1.29471409	      0.00000000	      0.00000000	    -39.95991431	      6.70217740	     -3.51767882	    -27.09923130	     13.94504995	    -14.13810115	     39.16144626	     20.27880038	      0.00000000	      3.05264084	      4.77535764	     -6.45059570	      7.32056190	      0.14054702	     20.27880038	      0.00000000	      3.05264084
      0.16000000	     34.04218692	     -1.53686132	     15.22131130	      0.00000000	      0.94000000	      0.00000000	     10.73585511	     -4.69336853	      0.00000000	     19.67253772	      0.34335056	     -1.29798965	      0.00000000	      0.00000000	     10.73585511	     -4.69336853	      0.00000000	     19.67253772	      0.34335056	     -1.29798965	      0.00000000	      0.00000000	    -39.77015000	      6.74459782	     -3.55871635	    -27.51280119	     13.90103815	    -14.10964395	     39.24778901	     20.34097839	      0.00000000	      3.06036951	      4.37968283	     -6.68089524	      7.30539484	      0.12902432	     20.34097839	      0.00000000	      3.06036951
      0.18000000	     34.09513375	     -1.50976275	     15.20975015	      0.00000000	      0.94000000	      0.00000000	     10.74451643	     -4.69715661	      0.00000000	     19.68403740	      0.34355126	     -1.29902182	      0.00000000	      0.00000000	     10.74451643	     -4.69715661	      0.00000000	     19.68403740	      0.34355126	     -1.29902182	      0.00000000	      0.00000000	    -39.76904655	      6.82580523	     -3.55019962	    -27.73117897	     13.85550183	    -14.13730406	     39.18498731	     20.36047175	      0.00000000	      3.06279316	      4.13842114	     -6.88842814	      7.30161689	      0.11739283	     20.36047175	      0.00000000	      3.06279316
      0.20000000	     34.10234284	     -1.48743542	     15.19357606	      0.00000000	      0.94000000	      0.00000000	     10.76334084	     -4.70539305	      0.00000000	     19.70900975	      0.34398711	     -1.30126512	      0.00000000	      0.00000000	     10.76334084	     -4.70539305	      0.00000000	     19.70900975	      0.34398711	     -1.30126512	      0.00000000	      0.00000000	    -39.61165767	      6.86363134	     -3.59110524	    -28.10447498	     13.79408296	    -14.11035150	     39.22048257	     20.40282928	      0.00000000	      3.06806194	      3.75064314	     -7.14195813	      7.23366055	      0.10968948	     20.40282928	      0.00000000	      3.06806194
